<?xml version="1.0" encoding="utf-8"?>
<svg version="1.1" xmlns:xlink="http://www.w3.org/1999/xlink" width="22px" height="19px" xmlns="http://www.w3.org/2000/svg">
  <g transform="matrix(1 0 0 1 -353 -372 )">
    <path d="M 20.5267857142857 3.93721535458686  C 21.5089285714286 5.1527868141401  22 6.47755367599219  22 7.91151594014314  C 22 9.34547820429408  21.5089285714286 10.6702450661462  20.5267857142857 11.8858165256994  C 19.5446428571429 13.1013879852527  18.2105654761905 14.0614834092388  16.5245535714286 14.7661027976578  C 14.8385416666667 15.4707221860768  12.9970238095238 15.8230318802863  11 15.8230318802863  C 10.4270833333333 15.8230318802863  9.83370535714286 15.7900672305357  9.21986607142857 15.7241379310345  C 7.59933035714286 17.1663413576231  5.71688988095238 18.1635220125786  3.57254464285714 18.7156798959011  C 3.17150297619048 18.8310561700282  2.70498511904762 18.9217089568423  2.17299107142857 18.9876382563435  C 2.03385416666667 19.0041205812188  1.90904017857143 18.9670353502494  1.79854910714286 18.8763825634353  C 1.68805803571429 18.7857297766211  1.61644345238095 18.6662329212752  1.58370535714286 18.5178919973975  L 1.58370535714286 18.5055302537411  C 1.55915178571429 18.4725656039905  1.5571056547619 18.4231186293646  1.57756696428571 18.3571893298634  C 1.59802827380952 18.2912600303622  1.60621279761905 18.2500542181739  1.60212053571429 18.2335718932986  C 1.59802827380952 18.2170895684233  1.61644345238095 18.1779440468445  1.65736607142857 18.1161353285621  L 1.73102678571429 18.0048796356539  C 1.73102678571429 18.0048796356539  1.75967261904762 17.9698546952939  1.81696428571429 17.8998048145738  C 1.87425595238095 17.8297549338538  1.90699404761905 17.7926697028844  1.91517857142857 17.7885491216656  C 1.97247023809524 17.7226198221644  2.09933035714286 17.5804597701149  2.29575892857143 17.3620689655172  C 2.4921875 17.1436781609195  2.63337053571429 16.9870960746042  2.71930803571429 16.8923227065712  C 2.80524553571429 16.7975493385383  2.93210565476191 16.6347863803947  3.09988839285714 16.4040338321405  C 3.26767113095238 16.1732812838864  3.40066964285714 15.9631316417263  3.49888392857143 15.7735849056604  C 3.59709821428571 15.5840381695945  3.70758928571429 15.3409238776838  3.83035714285714 15.0442420299284  C 3.953125 14.7475601821731  4.05952380952381 14.4343960095424  4.14955357142857 14.1047495120364  C 2.86458333333333 13.3712860550857  1.85174851190476 12.4647581869443  1.11104910714286 11.3851659076122  C 0.370349702380952 10.3055736282802  0 9.1476903057905  0 7.91151594014314  C 0 6.84016482324875  0.290550595238095 5.81620039037085  0.871651785714286 4.83962264150944  C 1.45275297619048 3.86304489264802  2.234375 3.02038603339839  3.21651785714286 2.31164606376057  C 4.19866071428571 1.60290609412275  5.36904761904762 1.0404467577532  6.72767857142857 0.624268054651919  C 8.08630952380952 0.208089351550638  9.51041666666667 0  11 0  C 12.9970238095238 0  14.8385416666667 0.352309694209499  16.5245535714286 1.0569290826285  C 18.2105654761905 1.7615484710475  19.5446428571429 2.72164389503361  20.5267857142857 3.93721535458686  Z " fill-rule="nonzero" fill="#000000" stroke="none" transform="matrix(1 0 0 1 353 372 )" />
  </g>
</svg>