<?xml version="1.0" encoding="utf-8"?>
<svg version="1.1" xmlns:xlink="http://www.w3.org/1999/xlink" width="29px" height="50px" xmlns="http://www.w3.org/2000/svg">
  <g transform="matrix(1 0 0 1 -701 -646 )">
    <path d="M 17.1337890625 34.4308035714286  C 17.7945963541667 35.3608630952381  18.125 36.3839285714286  18.125 37.5  C 18.125 38.9880952380952  17.5963541666667 40.2529761904762  16.5390625 41.2946428571429  C 15.4817708333333 42.3363095238095  14.1979166666667 42.8571428571429  12.6875 42.8571428571429  C 11.1770833333333 42.8571428571429  9.89322916666667 42.3363095238095  8.8359375 41.2946428571429  C 7.77864583333333 40.2529761904762  7.25 38.9880952380952  7.25 37.5  C 7.25 36.3839285714286  7.58040364583333 35.3608630952381  8.2412109375 34.4308035714286  C 8.90201822916667 33.500744047619  9.77994791666667 32.8404017857143  11 32.4497767857143  L 11 21.4285714285714  L 14 21.4285714285714  L 14 32.4497767857143  C 15.5950520833333 32.8404017857143  16.4729817708333 33.500744047619  17.1337890625 34.4308035714286  Z M 19.10205078125 43.8197544642857  C 20.8673502604167 42.0805431547619  21.75 39.9739583333333  21.75 37.5  C 21.75 36.0677083333333  21.4290364583333 34.7284226190476  20.787109375 33.4821428571429  C 20.1451822916667 32.2358630952381  19.2578125 31.1941964285714  18 30.3571428571429  L 18 8.92857142857143  C 18.125 7.44047619047619  17.5963541666667 6.17559523809524  16.5390625 5.13392857142857  C 15.4817708333333 4.0922619047619  14.1979166666667 3.57142857142857  12.6875 3.57142857142857  C 11.1770833333333 3.57142857142857  9.89322916666667 4.0922619047619  8.8359375 5.13392857142857  C 7.77864583333333 6.17559523809524  7.25 7.44047619047619  7.25 8.92857142857143  L 7.25 30.3571428571429  C 6.1171875 31.1941964285714  5.22981770833333 32.2358630952381  4.587890625 33.4821428571429  C 3.94596354166667 34.7284226190476  3.625 36.0677083333333  3.625 37.5  C 3.625 39.9739583333333  4.50764973958333 42.0805431547619  6.27294921875 43.8197544642857  C 8.03824869791667 45.5589657738095  10.1764322916667 46.4285714285714  12.6875 46.4285714285714  C 15.1985677083333 46.4285714285714  17.3367513020833 45.5589657738095  19.10205078125 43.8197544642857  Z M 21.75 28.7667410714286  C 24.1666666666667 31.2034970238095  25.375 34.1145833333333  25.375 37.5  C 25.375 40.9412202380952  24.1336263020833 43.8848586309524  21.65087890625 46.3309151785714  C 19.1681315104167 48.7769717261905  16.1803385416667 50  12.6875 50  C 9.19466145833333 50  6.20686848958333 48.7769717261905  3.72412109375 46.3309151785714  C 1.24137369791667 43.8848586309524  0 40.9412202380952  0 37.5  C 0 34.1145833333333  1.20833333333333 31.2034970238095  4 28.7667410714286  L 4 8.92857142857143  C 3.625 6.45461309523809  4.50764973958333 4.34802827380952  6.27294921875 2.60881696428572  C 8.03824869791667 0.869605654761907  10.1764322916667 0  12.6875 0  C 15.1985677083333 0  17.3367513020833 0.869605654761907  19.10205078125 2.60881696428572  C 20.8673502604167 4.34802827380952  21.75 6.45461309523809  21.75 8.92857142857143  L 21.75 28.7667410714286  Z M 23.5625 21.4285714285714  L 29 21.4285714285714  L 29 25  L 23.5625 25  L 23.5625 21.4285714285714  Z M 23.5625 14.2857142857143  L 29 14.2857142857143  L 29 17.8571428571429  L 23.5625 17.8571428571429  L 23.5625 14.2857142857143  Z M 23.5625 7.14285714285715  L 29 7.14285714285715  L 29 10.7142857142857  L 23.5625 10.7142857142857  L 23.5625 7.14285714285715  Z " fill-rule="nonzero" fill="#797979" stroke="none" transform="matrix(1 0 0 1 701 646 )" />
  </g>
</svg>