<?xml version="1.0" encoding="utf-8"?>
<svg version="1.1" xmlns:xlink="http://www.w3.org/1999/xlink" width="26px" height="22px" xmlns="http://www.w3.org/2000/svg">
  <g>
    <path d="M 21.4151785714286 11.8020833333333  C 23.233630952381 10.0069444444444  24.1428571428571 8.30729166666667  24.1428571428571 6.703125  C 24.1428571428571 5.9296875  24.0388764880952 5.24696180555555  23.8309151785714 4.65494791666667  C 23.6229538690476 4.06293402777778  23.3569568452381 3.59266493055555  23.0329241071429 3.244140625  C 22.7088913690476 2.89561631944444  22.3147321428571 2.61154513888889  21.8504464285714 2.39192708333333  C 21.3861607142857 2.17230902777778  20.9315476190476 2.02430555555555  20.4866071428571 1.94791666666667  C 20.0416666666667 1.87152777777777  19.5677083333333 1.83333333333333  19.0647321428571 1.83333333333333  C 18.561755952381 1.83333333333333  18.0200892857143 1.955078125  17.4397321428571 2.19856770833333  C 16.859375 2.44205729166667  16.324962797619 2.74761284722222  15.8364955357143 3.115234375  C 15.3480282738095 3.48285590277778  14.9296875 3.82660590277778  14.5814732142857 4.146484375  C 14.2332589285714 4.46636284722222  13.9430803571429 4.75998263888889  13.7109375 5.02734375  C 13.5368303571429 5.23741319444444  13.2998511904762 5.34244791666667  13 5.34244791666667  C 12.7001488095238 5.34244791666667  12.4631696428571 5.23741319444444  12.2890625 5.02734375  C 12.0569196428571 4.75998263888889  11.7667410714286 4.46636284722222  11.4185267857143 4.146484375  C 11.0703125 3.82660590277778  10.6519717261905 3.48285590277778  10.1635044642857 3.115234375  C 9.67503720238095 2.74761284722222  9.140625 2.44205729166667  8.56026785714286 2.19856770833333  C 7.97991071428571 1.955078125  7.43824404761905 1.83333333333333  6.93526785714286 1.83333333333333  C 6.43229166666667 1.83333333333333  5.95833333333333 1.87152777777777  5.51339285714286 1.94791666666667  C 5.06845238095238 2.02430555555555  4.61383928571429 2.17230902777778  4.14955357142857 2.39192708333333  C 3.68526785714286 2.61154513888889  3.29110863095238 2.89561631944444  2.96707589285714 3.244140625  C 2.64304315476191 3.59266493055555  2.37704613095238 4.06293402777778  2.16908482142857 4.65494791666667  C 1.96112351190476 5.24696180555555  1.85714285714286 5.9296875  1.85714285714286 6.703125  C 1.85714285714286 8.30729166666667  2.76153273809524 10.0021701388889  4.5703125 11.7877604166667  L 13 19.80859375  L 21.4151785714286 11.8020833333333  Z M 24.1573660714286 1.77604166666667  C 25.3857886904762 2.96006944444444  26 4.60243055555555  26 6.703125  C 26 8.81336805555555  24.8924851190476 10.9618055555556  22.6774553571429 13.1484375  L 13.6383928571429 21.7421875  C 13.4642857142857 21.9140625  13.2514880952381 22  13 22  C 12.7485119047619 22  12.5357142857143 21.9140625  12.3616071428571 21.7421875  L 3.30803571428571 13.1197916666667  C 3.21130952380952 13.0434027777778  3.07831101190476 12.9192708333333  2.90904017857143 12.7473958333333  C 2.7397693452381 12.5755208333333  2.47135416666667 12.2628038194444  2.10379464285714 11.8092447916667  C 1.73623511904762 11.3556857638889  1.40736607142857 10.8901909722222  1.1171875 10.4127604166667  C 0.827008928571428 9.93532986111111  0.568266369047619 9.35763888888889  0.340959821428571 8.6796875  C 0.113653273809524 8.00173611111111  0 7.34288194444444  0 6.703125  C 0 4.60243055555555  0.614211309523809 2.96006944444444  1.84263392857143 1.77604166666667  C 3.07105654761905 0.592013888888889  4.76860119047619 0  6.93526785714286 0  C 7.53497023809524 0  8.14676339285714 0.102647569444443  8.77064732142857 0.307942708333334  C 9.39453125 0.51323784722222  9.97488839285714 0.790147569444443  10.51171875 1.138671875  C 11.0485491071429 1.48719618055555  11.5104166666667 1.81423611111111  11.8973214285714 2.11979166666667  C 12.2842261904762 2.42534722222222  12.6517857142857 2.75  13 3.09375  C 13.3482142857143 2.75  13.7157738095238 2.42534722222222  14.1026785714286 2.11979166666667  C 14.4895833333333 1.81423611111111  14.9514508928571 1.48719618055555  15.48828125 1.138671875  C 16.0251116071429 0.790147569444443  16.60546875 0.51323784722222  17.2293526785714 0.307942708333334  C 17.8532366071429 0.102647569444443  18.4650297619048 0  19.0647321428571 0  C 21.2313988095238 0  22.928943452381 0.592013888888889  24.1573660714286 1.77604166666667  Z " fill-rule="nonzero" fill="#797979" stroke="none" fill-opacity="0.36078431372549" />
  </g>
</svg>